<?xml version="1.0" encoding="UTF-8" standalone="no"?>
<svg xmlns="http://www.w3.org/2000/svg" width="512" height="512" viewBox="0 0 512 512">
  <style>
    .logo { fill: #00ff00; }
    @media (prefers-color-scheme: dark) {
      .logo { fill: #00ff00; }
    }
  </style>
  <path class="logo" d="M256 32c-123.7 0-224 100.3-224 224 0 91.7 55.1 170.5 134.1 205.2-.6-15.6-.1-34.3 3.9-51.2-37.6-17.1-63.9-54.9-63.9-98.8 0-59.9 48.5-108.4 108.4-108.4 59.9 0 108.4 48.5 108.4 108.4 0 43.9-26.3 81.7-63.9 98.8 4 16.9 4.5 35.6 3.9 51.2C424.9 426.5 480 347.7 480 256c0-123.7-100.3-224-224-224zm64 320c0 35.3-28.7 64-64 64s-64-28.7-64-64 28.7-64 64-64 64 28.7 64 64zm-32-64c0-17.7-14.3-32-32-32s-32 14.3-32 32 14.3 32 32 32 32-14.3 32-32z"/>
</svg>
